<?xml version="1.0" standalone="no"?>
<!DOCTYPE svg PUBLIC "-//W3C//DTD SVG 20010904//EN"
 "http://www.w3.org/TR/2001/REC-SVG-20010904/DTD/svg10.dtd">
<svg version="1.0" xmlns="http://www.w3.org/2000/svg"
 width="700.000000pt" height="700.000000pt" viewBox="0 0 700.000000 700.000000"
 preserveAspectRatio="xMidYMid meet">
<metadata>
Created by potrace 1.11, written by Peter Selinger 2001-2013
</metadata>
<g transform="translate(0.000000,700.000000) scale(0.100000,-0.100000)"
fill="#000000" stroke="none">
<path d="M5375 6981 c-82 -20 -166 -57 -231 -102 -73 -50 -733 -713 -749 -754
-19 -43 -19 -86 -1 -128 18 -43 1560 -1585 1603 -1603 42 -18 85 -18 129 1 40
16 702 674 751 746 88 128 124 253 118 409 -2 52 -10 118 -18 145 -18 65 -69
166 -109 219 -47 62 -853 869 -928 930 -78 63 -116 85 -195 114 -80 29 -104
33 -210 37 -60 2 -113 -3 -160 -14z"/>
<path d="M3978 5680 c-20 -4 -49 -15 -64 -25 -15 -10 -836 -826 -1824 -1814
l-1796 -1796 -28 -165 c-16 -91 -30 -174 -32 -185 -3 -22 -60 -349 -94 -540
-11 -66 -23 -133 -26 -150 -2 -16 -7 -41 -9 -55 -8 -36 -12 -59 -20 -110 -4
-25 -9 -54 -11 -65 -2 -11 -9 -47 -14 -80 -5 -33 -12 -71 -15 -85 -2 -13 -7
-40 -10 -60 -3 -20 -7 -47 -10 -60 -32 -164 -29 -222 15 -310 38 -76 119 -146
190 -165 52 -14 130 -14 215 0 145 23 158 25 175 30 8 2 33 6 55 10 22 3 47 7
55 10 8 2 32 6 52 9 49 7 200 34 230 40 13 3 37 7 53 10 17 2 57 9 90 15 33 6
76 13 95 16 19 3 69 12 110 20 41 8 93 17 115 20 22 3 47 7 55 10 8 2 33 6 55
10 22 3 76 12 120 20 44 8 94 17 110 19 17 3 41 8 55 11 43 8 84 15 130 22 44
6 75 36 1856 1817 1495 1495 1813 1817 1820 1846 11 46 7 96 -11 129 -7 14
-364 376 -792 803 -832 831 -811 813 -895 798z m-2 -899 c11 -1 41 -15 66 -31
71 -47 100 -126 78 -210 -11 -41 -100 -134 -1078 -1114 -587 -587 -1087 -1081
-1111 -1097 -75 -49 -174 -37 -235 28 -41 44 -55 83 -51 147 2 47 9 63 38 99
19 23 510 517 1091 1097 1092 1092 1095 1094 1161 1084 11 -1 29 -3 41 -3z
m-2774 -2933 c2 -7 3 -155 2 -329 l-1 -315 311 -1 c171 -1 319 -2 329 -2 16
-1 17 -20 17 -249 0 -192 -3 -249 -12 -249 -21 -1 -96 -13 -203 -33 -55 -11
-127 -24 -160 -29 -33 -5 -100 -17 -150 -26 -49 -9 -150 -27 -224 -39 l-133
-23 -214 214 c-117 117 -211 219 -209 226 2 7 7 30 10 52 3 22 19 114 35 205
16 91 32 181 35 200 3 19 8 42 10 50 2 8 6 38 10 65 3 28 8 57 11 66 2 10 6
30 8 45 5 37 27 155 32 172 2 9 61 12 248 12 186 0 245 -3 248 -12z"/>
</g>
</svg>
